<svg xmlns="http://www.w3.org/2000/svg" viewBox="0 0 279.42 143.87"><defs><style>.cls-1{fill:#231f20;}.cls-2{fill:#4fb8c9;}.cls-3{fill:none;stroke:#231f20;stroke-miterlimit:10;}.cls-4{fill:#80d0e2;}.cls-5{font-size:26px;font-family:HelveticaNeue-Thin, Helvetica Neue;}.cls-6{letter-spacing:-0.01em;}.cls-7{letter-spacing:0em;}</style></defs><title>Asset 1</title><g id="Layer_2" data-name="Layer 2"><g id="Layer_1-2" data-name="Layer 1"><polyline points="3.91 49.46 3.91 2.49 46.83 2.49"/><path class="cls-1" d="M49.22,0H68.48A22.61,22.61,0,0,1,72.7.44,11.38,11.38,0,0,1,77,2.25a10.57,10.57,0,0,1,3.33,3.87,14,14,0,0,1,1.33,6.56q0,6-3.68,9.19T67.47,25.09H52V45.24H49.22ZM52,22.69h15.9a13,13,0,0,0,5.16-.92,9.3,9.3,0,0,0,3.39-2.38,9.16,9.16,0,0,0,1.84-3.23,11.53,11.53,0,0,0,.57-3.55,14.46,14.46,0,0,0-.38-3A9.23,9.23,0,0,0,77,6.24a9.11,9.11,0,0,0-3.2-2.72,11.59,11.59,0,0,0-5.48-1.11H52Z"/><path class="cls-1" d="M97.46,0h3l17.87,45.24h-3l-5.7-14.51H88L82.25,45.24h-3ZM108.8,28.32,99.11,2.72H99L88.91,28.32Z"/><path class="cls-1" d="M123.22,0h18.88a24.67,24.67,0,0,1,5.58.6,13.13,13.13,0,0,1,4.56,2,9.38,9.38,0,0,1,3.07,3.58,12.25,12.25,0,0,1,1.11,5.51,11.76,11.76,0,0,1-2.57,7.7,11.21,11.21,0,0,1-7.13,3.9v.13A10.77,10.77,0,0,1,151.64,25a8.05,8.05,0,0,1,2.69,3.11,12.54,12.54,0,0,1,1.14,4.06,39.28,39.28,0,0,1,.25,4.44v2.6a21.09,21.09,0,0,0,.13,2.38,11.78,11.78,0,0,0,.41,2.06,4.63,4.63,0,0,0,.79,1.58H154a8.2,8.2,0,0,1-1-3.71q-.1-2.12-.1-4.4t-.19-4.53a9.69,9.69,0,0,0-1.2-4,7.23,7.23,0,0,0-3.2-2.85,14.29,14.29,0,0,0-6.18-1.08H126V45.24h-2.79Zm18.88,22.24a16.76,16.76,0,0,0,4.59-.6,9.78,9.78,0,0,0,3.64-1.87,8.92,8.92,0,0,0,2.41-3.23,11.3,11.3,0,0,0,.89-4.69,9.23,9.23,0,0,0-1-4.34,8.4,8.4,0,0,0-2.53-2.95,10.45,10.45,0,0,0-3.68-1.65,18.55,18.55,0,0,0-4.37-.51H126V22.24Z"/><path class="cls-1" d="M164.73,0h2.79V26L196,0h3.61L178.92,18.82l21.93,26.42h-3.49L176.89,20.72l-9.38,8.55v16h-2.79Z"/><path class="cls-1" d="M205.45,0h30.42V2.41H208.24V20.53h26v2.41h-26v19.9h27.94v2.41H205.45Z"/><path class="cls-1" d="M241.81,0h18.88a24.7,24.7,0,0,1,5.58.6,13.18,13.18,0,0,1,4.56,2,9.38,9.38,0,0,1,3.07,3.58A12.28,12.28,0,0,1,275,11.66a11.76,11.76,0,0,1-2.57,7.7,11.21,11.21,0,0,1-7.12,3.9v.13A10.8,10.8,0,0,1,270.23,25a8.07,8.07,0,0,1,2.69,3.11,12.48,12.48,0,0,1,1.14,4.06,39.28,39.28,0,0,1,.25,4.44v2.6a21.07,21.07,0,0,0,.13,2.38,11.78,11.78,0,0,0,.41,2.06,4.67,4.67,0,0,0,.79,1.58h-3.1a8.2,8.2,0,0,1-1-3.71q-.1-2.12-.1-4.4t-.19-4.53a9.65,9.65,0,0,0-1.2-4,7.22,7.22,0,0,0-3.2-2.85,14.29,14.29,0,0,0-6.18-1.08H244.6V45.24h-2.79Zm18.88,22.24a16.72,16.72,0,0,0,4.59-.6,9.77,9.77,0,0,0,3.65-1.87,8.86,8.86,0,0,0,2.4-3.23,11.3,11.3,0,0,0,.89-4.69,9.17,9.17,0,0,0-1-4.34,8.35,8.35,0,0,0-2.53-2.95,10.43,10.43,0,0,0-3.68-1.65,18.53,18.53,0,0,0-4.37-.51H244.6V22.24Z"/><path class="cls-2" d="M19.28,62.17a21.66,21.66,0,0,1,7.56,1.29,16.43,16.43,0,0,1,6.06,3.88,17.92,17.92,0,0,1,4,6.47,26.18,26.18,0,0,1,1.44,9.12,29.09,29.09,0,0,1-1.18,8.47,18.63,18.63,0,0,1-3.56,6.71,16.67,16.67,0,0,1-5.94,4.44,20.12,20.12,0,0,1-8.38,1.62H1.16v-42Zm-.65,34.24a11.88,11.88,0,0,0,3.88-.65,8.58,8.58,0,0,0,3.35-2.15,10.8,10.8,0,0,0,2.35-3.91,17.19,17.19,0,0,0,.88-5.88,24.47,24.47,0,0,0-.62-5.74,11.44,11.44,0,0,0-2-4.38,9,9,0,0,0-3.74-2.8,14.94,14.94,0,0,0-5.74-1H10.39V96.41Z"/><path class="cls-2" d="M79.12,62.17v7.77H56.94v9H77.29v7.18H56.94v10.3H79.59v7.77H47.7v-42Z"/><path class="cls-2" d="M95.83,93.82a6.66,6.66,0,0,0,2,2.38,8.78,8.78,0,0,0,3,1.35,14,14,0,0,0,3.53.44,18.44,18.44,0,0,0,2.65-.21,9.23,9.23,0,0,0,2.65-.79,5.79,5.79,0,0,0,2.06-1.62,4.05,4.05,0,0,0,.82-2.62A3.69,3.69,0,0,0,111.45,90a8.65,8.65,0,0,0-2.85-1.76,28.31,28.31,0,0,0-4-1.24q-2.24-.53-4.53-1.18a40.18,40.18,0,0,1-4.59-1.44,15.67,15.67,0,0,1-4-2.21,9.89,9.89,0,0,1-3.94-8.3,11,11,0,0,1,1.38-5.62,12.5,12.5,0,0,1,3.62-4,15.77,15.77,0,0,1,5.06-2.35,21.55,21.55,0,0,1,5.65-.76,26.77,26.77,0,0,1,6.32.73A15.8,15.8,0,0,1,115,64.29a12.07,12.07,0,0,1,3.74,4.21,12.92,12.92,0,0,1,1.38,6.21h-8.94a7.45,7.45,0,0,0-.79-3.12,5.21,5.21,0,0,0-1.8-1.94,7.59,7.59,0,0,0-2.56-1,15.8,15.8,0,0,0-3.15-.29,10.9,10.9,0,0,0-2.24.24,6,6,0,0,0-2,.82,5.11,5.11,0,0,0-1.5,1.47,4,4,0,0,0-.59,2.24,3.76,3.76,0,0,0,.47,2,4.18,4.18,0,0,0,1.85,1.41,23.56,23.56,0,0,0,3.82,1.3q2.44.65,6.38,1.65,1.18.24,3.27.85a15.67,15.67,0,0,1,4.15,2A12.53,12.53,0,0,1,120,85.91a10.3,10.3,0,0,1,1.5,5.79,12.84,12.84,0,0,1-1.12,5.35,11.61,11.61,0,0,1-3.32,4.27,15.94,15.94,0,0,1-5.47,2.8,25.85,25.85,0,0,1-7.56,1,26.58,26.58,0,0,1-6.74-.85,16.9,16.9,0,0,1-5.77-2.68,13.21,13.21,0,0,1-4-4.65,13.86,13.86,0,0,1-1.41-6.71h8.94A7.7,7.7,0,0,0,95.83,93.82Z"/><path class="cls-2" d="M139.72,62.17v42h-9.24v-42Z"/><path class="cls-2" d="M176.26,103.85a15.46,15.46,0,0,1-6.06,1.27,21.53,21.53,0,0,1-8.68-1.68,18.58,18.58,0,0,1-6.5-4.62A20.43,20.43,0,0,1,151,91.91a25.38,25.38,0,0,1-1.41-8.56A26.25,26.25,0,0,1,151,74.61a21,21,0,0,1,4.06-7,18.56,18.56,0,0,1,6.5-4.71,21.22,21.22,0,0,1,8.68-1.71,20.43,20.43,0,0,1,6.27,1A17.75,17.75,0,0,1,181.94,65a15.43,15.43,0,0,1,6,11h-8.83a8.85,8.85,0,0,0-3.18-5.3,9.25,9.25,0,0,0-5.71-1.77,10.79,10.79,0,0,0-5.3,1.21,10,10,0,0,0-3.53,3.24,14.21,14.21,0,0,0-2,4.62,23,23,0,0,0-.62,5.35,21.41,21.41,0,0,0,.62,5.15,13.93,13.93,0,0,0,2,4.5,10.07,10.07,0,0,0,3.53,3.21,10.77,10.77,0,0,0,5.3,1.21q4.59,0,7.09-2.32a10.1,10.1,0,0,0,2.91-6.74h-9.3V81.47h17.65v22.71h-5.89l-.94-4.77A13.82,13.82,0,0,1,176.26,103.85Z"/><path class="cls-2" d="M208.74,62.17l17.53,28.18h.12V62.17H235v42H225.8L208.33,76.05h-.12v28.13h-8.65v-42Z"/><path class="cls-2" d="M253.75,93.82a6.67,6.67,0,0,0,2,2.38,8.8,8.8,0,0,0,3,1.35,14.05,14.05,0,0,0,3.53.44,18.41,18.41,0,0,0,2.65-.21,9.26,9.26,0,0,0,2.65-.79,5.78,5.78,0,0,0,2.06-1.62,4,4,0,0,0,.82-2.62A3.69,3.69,0,0,0,269.37,90a8.66,8.66,0,0,0-2.86-1.76,28.25,28.25,0,0,0-4-1.24q-2.24-.53-4.53-1.18a40.25,40.25,0,0,1-4.59-1.44,15.65,15.65,0,0,1-4-2.21,9.89,9.89,0,0,1-3.94-8.3,11,11,0,0,1,1.38-5.62,12.47,12.47,0,0,1,3.62-4,15.76,15.76,0,0,1,5.06-2.35,21.55,21.55,0,0,1,5.65-.76,26.79,26.79,0,0,1,6.32.73,15.8,15.8,0,0,1,5.38,2.38,12.07,12.07,0,0,1,3.73,4.21A12.91,12.91,0,0,1,278,74.7H269a7.45,7.45,0,0,0-.79-3.12,5.22,5.22,0,0,0-1.79-1.94,7.63,7.63,0,0,0-2.56-1,15.83,15.83,0,0,0-3.15-.29,10.91,10.91,0,0,0-2.24.24,6,6,0,0,0-2,.82,5.11,5.11,0,0,0-1.5,1.47,3.94,3.94,0,0,0-.59,2.24,3.77,3.77,0,0,0,.47,2,4.19,4.19,0,0,0,1.85,1.41,23.54,23.54,0,0,0,3.83,1.3q2.44.65,6.38,1.65,1.18.24,3.26.85a15.64,15.64,0,0,1,4.15,2,12.55,12.55,0,0,1,3.56,3.62,10.29,10.29,0,0,1,1.5,5.79,12.84,12.84,0,0,1-1.12,5.35,11.62,11.62,0,0,1-3.32,4.27,16,16,0,0,1-5.47,2.8,25.85,25.85,0,0,1-7.56,1,26.58,26.58,0,0,1-6.74-.85,16.89,16.89,0,0,1-5.77-2.68,13.19,13.19,0,0,1-4-4.65A13.86,13.86,0,0,1,244,90.23H253A7.7,7.7,0,0,0,253.75,93.82Z"/><line id="Middle_Line" data-name="Middle Line" class="cls-3" x1="0.02" y1="53.25" x2="278.37" y2="53.25"/><polyline class="cls-4" points="0.53 47.01 0.53 0.04 43.45 0.04"/><text class="cls-5" transform="translate(0 135.65)">Making layers come <tspan class="cls-6" x="223.36" y="0">t</tspan><tspan class="cls-7" x="229.73" y="0">o life</tspan></text></g></g></svg>