<?xml version="1.0" encoding="utf-8"?>
<!-- Generator: Adobe Illustrator 21.1.0, SVG Export Plug-In . SVG Version: 6.00 Build 0)  -->
<svg version="1.1" id="Overall_Logo" xmlns="http://www.w3.org/2000/svg" xmlns:xlink="http://www.w3.org/1999/xlink" x="0px"
	 y="0px" viewBox="0 0 123.5 46.5" style="enable-background:new 0 0 123.5 46.5;" xml:space="preserve">
<style type="text/css">
	.st0{fill:#426E85;}
	.st1{fill:none;stroke:#000000;stroke-miterlimit:10;}
</style>
<g>
	<path d="M21.7,0h8.5c0.6,0,1.2,0.1,1.9,0.2C32.8,0.3,33.4,0.6,34,1c0.6,0.4,1.1,1,1.5,1.7c0.4,0.7,0.6,1.7,0.6,2.9
		c0,1.8-0.5,3.1-1.6,4.1c-1.1,1-2.6,1.4-4.6,1.4H23V20h-1.2V0z M23,10h7c0.9,0,1.7-0.1,2.3-0.4c0.6-0.3,1.1-0.6,1.5-1
		c0.4-0.4,0.6-0.9,0.8-1.4c0.2-0.5,0.3-1,0.3-1.6c0-0.4-0.1-0.8-0.2-1.3c-0.1-0.5-0.3-1-0.7-1.5s-0.8-0.9-1.4-1.2
		c-0.6-0.3-1.4-0.5-2.4-0.5H23V10z"/>
	<path d="M43.1,0h1.3l7.9,20H51l-2.5-6.4h-9.6L36.3,20H35L43.1,0z M48.1,12.5L43.8,1.2h-0.1l-4.5,11.3H48.1z"/>
	<path d="M54.4,0h8.3c0.9,0,1.7,0.1,2.5,0.3c0.8,0.2,1.4,0.5,2,0.9c0.6,0.4,1,0.9,1.4,1.6c0.3,0.7,0.5,1.5,0.5,2.4
		c0,1.3-0.4,2.5-1.1,3.4s-1.8,1.5-3.2,1.7v0.1c0.9,0.1,1.6,0.4,2.2,0.7c0.5,0.4,0.9,0.8,1.2,1.4c0.3,0.5,0.4,1.1,0.5,1.8
		c0.1,0.7,0.1,1.3,0.1,2c0,0.4,0,0.8,0,1.1c0,0.4,0,0.7,0.1,1.1S69,19,69,19.3c0.1,0.3,0.2,0.5,0.3,0.7H68c-0.3-0.5-0.4-1-0.4-1.6
		c0-0.6,0-1.3,0-1.9s0-1.3-0.1-2c-0.1-0.7-0.2-1.3-0.5-1.8c-0.3-0.5-0.8-0.9-1.4-1.3c-0.6-0.3-1.6-0.5-2.7-0.5h-7.1V20h-1.2V0z
		 M62.8,9.8c0.7,0,1.4-0.1,2-0.3c0.6-0.2,1.2-0.5,1.6-0.8c0.4-0.4,0.8-0.8,1.1-1.4c0.3-0.6,0.4-1.3,0.4-2.1c0-0.7-0.1-1.4-0.4-1.9
		c-0.3-0.5-0.7-1-1.1-1.3c-0.5-0.3-1-0.6-1.6-0.7c-0.6-0.1-1.3-0.2-1.9-0.2h-7.1v8.8H62.8z"/>
	<path d="M72.8,0H74v11.5L86.6,0h1.6l-9.1,8.3L88.7,20h-1.5l-9-10.8L74,12.9V20h-1.2V0z"/>
	<path d="M90.8,0h13.4v1.1H92v8h11.5v1.1H92v8.8h12.3V20H90.8V0z"/>
	<path d="M106.8,0h8.3c0.9,0,1.7,0.1,2.5,0.3c0.8,0.2,1.4,0.5,2,0.9c0.6,0.4,1,0.9,1.4,1.6s0.5,1.5,0.5,2.4c0,1.3-0.4,2.5-1.1,3.4
		s-1.8,1.5-3.1,1.7v0.1c0.9,0.1,1.6,0.4,2.2,0.7c0.5,0.4,0.9,0.8,1.2,1.4c0.3,0.5,0.4,1.1,0.5,1.8c0.1,0.7,0.1,1.3,0.1,2
		c0,0.4,0,0.8,0,1.1c0,0.4,0,0.7,0.1,1.1s0.1,0.6,0.2,0.9c0.1,0.3,0.2,0.5,0.3,0.7h-1.4c-0.3-0.5-0.4-1-0.4-1.6c0-0.6,0-1.3,0-1.9
		s0-1.3-0.1-2s-0.2-1.3-0.5-1.8s-0.8-0.9-1.4-1.3c-0.6-0.3-1.6-0.5-2.7-0.5h-7.1V20h-1.2V0z M115.2,9.8c0.7,0,1.4-0.1,2-0.3
		c0.6-0.2,1.2-0.5,1.6-0.8c0.4-0.4,0.8-0.8,1.1-1.4c0.3-0.6,0.4-1.3,0.4-2.1c0-0.7-0.1-1.4-0.4-1.9c-0.3-0.5-0.7-1-1.1-1.3
		s-1-0.6-1.6-0.7c-0.6-0.1-1.3-0.2-1.9-0.2h-7.1v8.8H115.2z"/>
</g>
<g>
	<path class="st0" d="M8.5,27.5c1.2,0,2.3,0.2,3.3,0.6c1,0.4,1.9,1,2.7,1.7c0.8,0.8,1.3,1.7,1.8,2.9s0.6,2.5,0.6,4
		c0,1.4-0.2,2.6-0.5,3.7c-0.3,1.1-0.9,2.1-1.6,3c-0.7,0.8-1.6,1.5-2.6,2S9.9,46,8.5,46h-8V27.5H8.5z M8.2,42.6
		c0.6,0,1.2-0.1,1.7-0.3c0.6-0.2,1-0.5,1.5-0.9c0.4-0.4,0.8-1,1-1.7c0.3-0.7,0.4-1.6,0.4-2.6c0-0.9-0.1-1.8-0.3-2.5
		c-0.2-0.8-0.5-1.4-0.9-1.9s-1-0.9-1.7-1.2c-0.7-0.3-1.5-0.4-2.5-0.4H4.6v11.7H8.2z"/>
	<path class="st0" d="M35,27.5v3.4h-9.8v4h9v3.2h-9v4.5h10V46H21.1V27.5H35z"/>
	<path class="st0" d="M42.3,41.5c0.2,0.4,0.5,0.8,0.9,1.1c0.4,0.3,0.8,0.5,1.3,0.6c0.5,0.1,1,0.2,1.6,0.2c0.4,0,0.8,0,1.2-0.1
		s0.8-0.2,1.2-0.4c0.4-0.2,0.7-0.4,0.9-0.7c0.2-0.3,0.4-0.7,0.4-1.2c0-0.5-0.2-0.9-0.5-1.2c-0.3-0.3-0.7-0.6-1.3-0.8
		s-1.1-0.4-1.8-0.5c-0.7-0.2-1.3-0.3-2-0.5c-0.7-0.2-1.4-0.4-2-0.6s-1.2-0.6-1.8-1c-0.5-0.4-0.9-0.9-1.3-1.5
		c-0.3-0.6-0.5-1.3-0.5-2.2c0-1,0.2-1.8,0.6-2.5s0.9-1.3,1.6-1.8c0.7-0.5,1.4-0.8,2.2-1c0.8-0.2,1.7-0.3,2.5-0.3
		c1,0,1.9,0.1,2.8,0.3c0.9,0.2,1.7,0.6,2.4,1.1s1.2,1.1,1.7,1.9C52.8,31,53,31.9,53,33h-4c0-0.6-0.2-1-0.4-1.4
		c-0.2-0.4-0.5-0.7-0.8-0.9s-0.7-0.4-1.1-0.4c-0.4-0.1-0.9-0.1-1.4-0.1c-0.3,0-0.7,0-1,0.1c-0.3,0.1-0.6,0.2-0.9,0.4
		c-0.3,0.2-0.5,0.4-0.7,0.7c-0.2,0.3-0.3,0.6-0.3,1c0,0.4,0.1,0.7,0.2,0.9c0.1,0.2,0.4,0.4,0.8,0.6c0.4,0.2,1,0.4,1.7,0.6
		c0.7,0.2,1.7,0.4,2.8,0.7c0.3,0.1,0.8,0.2,1.4,0.4c0.6,0.2,1.2,0.5,1.8,0.9c0.6,0.4,1.1,0.9,1.6,1.6s0.7,1.5,0.7,2.6
		c0,0.8-0.2,1.6-0.5,2.4c-0.3,0.7-0.8,1.4-1.5,1.9c-0.6,0.5-1.5,0.9-2.4,1.2c-1,0.3-2.1,0.4-3.3,0.4c-1,0-2-0.1-3-0.4
		c-1-0.3-1.8-0.6-2.5-1.2c-0.7-0.5-1.3-1.2-1.8-2.1C38.2,42,38,41,38,39.9h4C42,40.5,42.1,41,42.3,41.5z"/>
	<path class="st0" d="M61.7,27.5V46h-4.1V27.5H61.7z"/>
	<path class="st0" d="M77.9,45.9c-0.9,0.4-1.8,0.6-2.7,0.6c-1.4,0-2.7-0.2-3.8-0.7c-1.1-0.5-2.1-1.2-2.9-2c-0.8-0.9-1.4-1.9-1.8-3.1
		s-0.6-2.4-0.6-3.8c0-1.4,0.2-2.7,0.6-3.9c0.4-1.2,1-2.2,1.8-3.1c0.8-0.9,1.7-1.6,2.9-2.1c1.1-0.5,2.4-0.8,3.8-0.8
		c1,0,1.9,0.1,2.8,0.4c0.9,0.3,1.7,0.7,2.4,1.3c0.7,0.6,1.3,1.2,1.8,2.1c0.5,0.8,0.8,1.8,0.9,2.8h-3.9c-0.2-1-0.7-1.8-1.4-2.3
		c-0.7-0.5-1.5-0.8-2.5-0.8c-0.9,0-1.7,0.2-2.3,0.5c-0.6,0.4-1.2,0.8-1.6,1.4c-0.4,0.6-0.7,1.3-0.9,2c-0.2,0.8-0.3,1.6-0.3,2.4
		c0,0.8,0.1,1.5,0.3,2.3c0.2,0.7,0.5,1.4,0.9,2c0.4,0.6,0.9,1.1,1.6,1.4c0.6,0.4,1.4,0.5,2.3,0.5c1.4,0,2.4-0.3,3.1-1
		c0.7-0.7,1.2-1.7,1.3-3h-4.1v-3h7.8v10h-2.6l-0.4-2.1C79.6,44.9,78.8,45.5,77.9,45.9z"/>
	<path class="st0" d="M92.2,27.5l7.7,12.5h0.1V27.5h3.8V46h-4.1L92,33.6H92V46h-3.8V27.5H92.2z"/>
	<path class="st0" d="M112.1,41.5c0.2,0.4,0.5,0.8,0.9,1.1c0.4,0.3,0.8,0.5,1.3,0.6c0.5,0.1,1,0.2,1.6,0.2c0.4,0,0.8,0,1.2-0.1
		c0.4-0.1,0.8-0.2,1.2-0.4c0.4-0.2,0.7-0.4,0.9-0.7c0.2-0.3,0.4-0.7,0.4-1.2c0-0.5-0.2-0.9-0.5-1.2c-0.3-0.3-0.7-0.6-1.3-0.8
		c-0.5-0.2-1.1-0.4-1.8-0.5c-0.7-0.2-1.3-0.3-2-0.5c-0.7-0.2-1.4-0.4-2-0.6s-1.2-0.6-1.8-1c-0.5-0.4-0.9-0.9-1.3-1.5
		c-0.3-0.6-0.5-1.3-0.5-2.2c0-1,0.2-1.8,0.6-2.5c0.4-0.7,0.9-1.3,1.6-1.8c0.7-0.5,1.4-0.8,2.2-1c0.8-0.2,1.7-0.3,2.5-0.3
		c1,0,1.9,0.1,2.8,0.3c0.9,0.2,1.7,0.6,2.4,1.1c0.7,0.5,1.2,1.1,1.7,1.9s0.6,1.7,0.6,2.7h-4c0-0.6-0.2-1-0.4-1.4
		c-0.2-0.4-0.5-0.7-0.8-0.9c-0.3-0.2-0.7-0.4-1.1-0.4c-0.4-0.1-0.9-0.1-1.4-0.1c-0.3,0-0.7,0-1,0.1c-0.3,0.1-0.6,0.2-0.9,0.4
		c-0.3,0.2-0.5,0.4-0.7,0.7c-0.2,0.3-0.3,0.6-0.3,1c0,0.4,0.1,0.7,0.2,0.9c0.1,0.2,0.4,0.4,0.8,0.6c0.4,0.2,1,0.4,1.7,0.6
		c0.7,0.2,1.7,0.4,2.8,0.7c0.3,0.1,0.8,0.2,1.4,0.4c0.6,0.2,1.2,0.5,1.8,0.9s1.1,0.9,1.6,1.6s0.7,1.5,0.7,2.6c0,0.8-0.2,1.6-0.5,2.4
		c-0.3,0.7-0.8,1.4-1.5,1.9c-0.7,0.5-1.5,0.9-2.4,1.2c-1,0.3-2.1,0.4-3.3,0.4c-1,0-2-0.1-3-0.4s-1.8-0.6-2.5-1.2
		c-0.7-0.5-1.3-1.2-1.8-2.1c-0.4-0.8-0.6-1.8-0.6-3h4C111.8,40.5,111.9,41,112.1,41.5z"/>
</g>
<line id="Middle_Line_2_" class="st1" x1="0" y1="23.5" x2="123" y2="23.5"/>
<g id="Bottom_Right_Triangle">
	<polyline points="1.6,22.1 1.6,1.9 20.1,1.9 	"/>
</g>
<g id="Top_Left_Triangle">
	<polyline class="st0" points="0.2,20.8 0.2,0 19.2,0 	"/>
</g>
</svg>
